<?xml version="1.0" encoding="UTF-8"?>
<svg id="Layer_1" xmlns="http://www.w3.org/2000/svg" version="1.1" viewBox="0 0 2030.6 546.3">
  <!-- Generator: Adobe Illustrator 29.0.1, SVG Export Plug-In . SVG Version: 2.1.0 Build 192)  -->
  <defs>
    <style>
      .st0 {
        fill-rule: evenodd;
      }

      .st0, .st1 {
        fill: #d3d3d3;
      }
    </style>
  </defs>
  <path class="st1" d="M839,207c0,9.9,1.1,18,3,23.9,2.1,5.9,4.8,12.4,8.6,19.3,1.3,2.1,1.9,4.3,1.9,6.2,0,2.7-1.6,5.4-5.1,8.1l-16.9,11.3c-2.4,1.6-4.8,2.4-7,2.4s-5.4-1.3-8.1-3.8c-3.8-4-7-8.3-9.7-12.6-2.7-4.6-5.4-9.7-8.3-15.9-21,24.7-47.3,37.1-79,37.1s-40.6-6.4-53.7-19.3c-13.2-12.9-19.9-30.1-19.9-51.6s8.1-41.4,24.5-55.4c16.4-14,38.2-21,65.8-21s18.5.8,28.5,2.1,20.2,3.5,30.9,5.9v-19.6c0-20.4-4.3-34.7-12.6-43-8.6-8.3-23.1-12.4-43.8-12.4s-19.1,1.1-29,3.5-19.6,5.4-29,9.1c-4.3,1.9-7.5,3-9.4,3.5-1.9.5-3.2.8-4.3.8-3.8,0-5.6-2.7-5.6-8.3v-13.2c0-4.3.5-7.5,1.9-9.4s3.8-3.8,7.5-5.6c9.4-4.8,20.7-8.9,33.9-12.1,13.2-3.5,27.1-5.1,41.9-5.1,32,0,55.4,7.3,70.4,21.8,14.8,14.5,22.3,36.5,22.3,66.1v87.1h.5ZM729.9,247.9c8.9,0,18-1.6,27.7-4.8,9.7-3.2,18.3-9.1,25.5-17.2,4.3-5.1,7.5-10.7,9.1-17.2s2.7-14.2,2.7-23.4v-11.3c-7.8-1.9-16.1-3.5-24.7-4.6-8.6-1.1-16.9-1.6-25.3-1.6-18,0-31.2,3.5-40,10.7-8.9,7.3-13.2,17.5-13.2,30.9s3.2,22,9.9,28.5c6.4,6.7,15.9,9.9,28.2,9.9ZM945.7,276.9c-4.8,0-8.1-.8-10.2-2.7-2.1-1.6-4-5.4-5.6-10.5l-63.2-207.7c-1.6-5.4-2.4-8.9-2.4-10.7,0-4.3,2.1-6.7,6.4-6.7h26.3c5.1,0,8.6.8,10.5,2.7,2.1,1.6,3.8,5.4,5.4,10.5l45.1,177.9,41.9-177.9c1.3-5.4,3-8.9,5.1-10.5,2.1-1.6,5.9-2.7,10.7-2.7h21.5c5.1,0,8.6.8,10.7,2.7,2.1,1.6,4,5.4,5.1,10.5l42.5,180,46.5-180c1.6-5.4,3.5-8.9,5.4-10.5,2.1-1.6,5.6-2.7,10.5-2.7h25c4.3,0,6.7,2.1,6.7,6.7s-.3,2.7-.5,4.3c-.3,1.6-.8,3.8-1.9,6.7l-64.8,207.7c-1.6,5.4-3.5,8.9-5.6,10.5s-5.6,2.7-10.2,2.7h-23.1c-5.1,0-8.6-.8-10.7-2.7s-4-5.4-5.1-10.7l-41.7-173.3-41.4,173.1c-1.3,5.4-3,8.9-5.1,10.7-2.1,1.9-5.9,2.7-10.7,2.7h-23.1ZM1291,284.2c-14,0-27.9-1.6-41.4-4.8-13.4-3.2-23.9-6.7-30.9-10.7-4.3-2.4-7.3-5.1-8.3-7.5-1.1-2.4-1.6-5.1-1.6-7.5v-13.7c0-5.6,2.1-8.3,6.2-8.3s3.2.3,4.8.8c1.6.5,4,1.6,6.7,2.7,9.1,4,19.1,7.3,29.6,9.4,10.7,2.1,21.2,3.2,32,3.2,16.9,0,30.1-3,39.2-8.9,9.1-5.9,14-14.5,14-25.5s-2.4-13.7-7.3-18.8c-4.8-5.1-14-9.7-27.1-14l-39-12.1c-19.6-6.2-34.1-15.3-43-27.4-8.9-11.8-13.4-25-13.4-39s2.4-21.2,7.3-29.8c4.8-8.6,11.3-16.1,19.3-22,8.1-6.2,17.2-10.7,27.9-14,10.7-3.2,22-4.6,33.9-4.6s12.1.3,18,1.1c6.2.8,11.8,1.9,17.5,3,5.4,1.3,10.5,2.7,15.3,4.3,4.8,1.6,8.6,3.2,11.3,4.8,3.8,2.1,6.4,4.3,8.1,6.7,1.6,2.1,2.4,5.1,2.4,8.9v12.6c0,5.6-2.1,8.6-6.2,8.6s-5.6-1.1-10.2-3.2c-15.3-7-32.5-10.5-51.6-10.5s-27.4,2.4-35.7,7.5c-8.3,5.1-12.6,12.9-12.6,23.9s2.7,14,8.1,19.1c5.4,5.1,15.3,10.2,29.6,14.8l38.2,12.1c19.3,6.2,33.3,14.8,41.7,25.8,8.3,11,12.4,23.6,12.4,37.6s-2.4,22-7,31.2c-4.8,9.1-11.3,17.2-19.6,23.6-8.3,6.7-18.3,11.6-29.8,15-12.1,3.8-24.7,5.6-38.4,5.6Z"/>
  <g>
    <path class="st0" d="M1341.8,414.8c-88.4,65.3-216.9,100-327.3,100s-294.3-57.2-399.6-152.4c-8.3-7.5-.8-17.7,9.1-11.8,113.9,66.1,254.5,106.1,399.9,106.1s205.8-20.4,305-62.3c14.8-6.7,27.4,9.7,12.9,20.4Z"/>
    <path class="st0" d="M1378.6,372.8c-11.3-14.5-74.7-7-103.5-3.5-8.6,1.1-9.9-6.4-2.1-12.1,50.5-35.5,133.6-25.3,143.2-13.4,9.7,12.1-2.7,95.1-50,134.9-7.3,6.2-14.2,3-11-5.1,10.7-26.6,34.7-86.5,23.4-100.8Z"/>
  </g>
</svg>