<?xml version="1.0" encoding="UTF-8"?>
<svg id="Layer_1" xmlns="http://www.w3.org/2000/svg" version="1.1" viewBox="0 0 2030.6 546.3">
  <!-- Generator: Adobe Illustrator 29.0.1, SVG Export Plug-In . SVG Version: 2.1.0 Build 192)  -->
  <defs>
    <style>
      .st0 {
        fill: #d3d3d3;
      }
    </style>
  </defs>
  <path class="st0" d="M325.8,19.4c20.2,2.3,44.2,13.9,60.6,25.6s15.4,15.2,16.5,15.5c8,2.2,23.1-2.9,33.5-2.4,71.9,3,128.6,68.2,122.8,139.1-.7,8.8-6.2,20.9-4.9,29s16.2,22.9,20,31.1c27.8,61.5,2.4,138.1-58.7,167.6-7,3.3-28.1,8.5-31.1,11.4-3.3,3.1-13.3,27.4-19.1,35.5-39.8,55.8-122.7,68.2-178.4,27.9-5.4-3.9-14.4-16.3-19-17.6-4.9-1.4-26.6,2.7-36,2.1-63.8-4.1-119.5-60.7-120.5-124.7-.2-10.3,7.4-37.9,6.3-42.7s-18.7-27.1-22.8-37.5c-28.4-73.4,13.6-155.5,91.5-170.9,14-43.9,58.8-83.5,105.1-89,8.1-1,25.9-.9,34,0ZM257.7,288v-144c0-1.5,5.4-8.1,7.4-9.6l104.4-60.6c-53.2-42.3-133.7-18.7-151.4,47.7-11.1,41.4-.5,95.3-4.1,138.6,1.7,8.9,34.3,23.7,43.7,27.9ZM282,163.4v49.6l127.9-72.6c7.3-.9,13.4,3.8,19.6,6.8,30.8,15.2,61.3,37.6,92.1,53.6,4.9.7,3.1-.2,3.6-3.5,9.3-71.2-64.4-125.7-130.6-98.5l-112.7,64.6ZM182.3,145.2c-33.7,6.3-60,44-62.9,76.5-8.1,89.1,90.1,109.3,148,150.1l43.8-24.5-128.9-77.5v-124.6ZM491.2,399.4c48.8-20,73.6-71.2,55.4-121.7s-99.8-75.5-142.7-107.2l-44,23.2c-1.1,1.7,4.1,4.3,5.6,5.3,32.9,20.5,88.1,43.7,115.9,66.2,2.5,2,9.9,9.6,9.9,12v122.2ZM282.4,304.6l52.3,28.9c3.1.3,51.9-26.9,54.3-29.8,3.4-4,4.1-59.6,1.3-64.1l-53.9-31-53.1,31.1-.8,65ZM413.3,254.1v146.4c-29.8,27-71.1,40.6-103.8,63.7s-6.3,2.3-5.7,6.5c58.5,44.9,145.9,8.1,153.2-65.3,3.9-38.9-2.8-83.8,0-123.4l-4.9-7.2-38.8-20.6ZM391.5,331.6l-127.9,70.2c-8,1.6-13.8-2.8-20.5-6-31.4-14.9-62.7-38-93.6-54.5-5.9-1.8-4,16.6-3.7,20.6,4.5,65.3,70.2,105.7,131.4,82.2l114.3-64.1v-48.4Z"/>
  <path class="st0" d="M785,121.7c172.2-7.2,176.6,272,14,280.1-173.7,8.7-180.2-273.2-14-280.1ZM780,165.2c-96,12.9-91.3,206.6,23.4,192.7,93.6-11.3,88.7-207.8-23.4-192.7Z"/>
  <path class="st0" d="M1585.6,396.9l105.7-271.3,52.1.5,102.5,270.7h-47.4l-23.4-60.2h-117.3c-5.7,2-20.6,50.9-23.5,60.2h-48.6ZM1673.2,292.9h85.1l-45-108.9-40.2,108.9Z"/>
  <path class="st0" d="M997.1,377.6v87.1h-46.2V202.1l3.6-3.6h42.6v19.4c10.3-4.1,14.7-12.1,25.9-16.6,45.6-18.6,93.2,4.3,110.8,48.9,37.4,94.8-43.9,200.7-136.6,127.5ZM1037.8,235.4c-24.4,3.4-38.3,23.1-40.7,46.6-4.5,44.1,8.2,86.9,61.8,78.5,52.8-8.3,55.3-135.7-21.1-125.1Z"/>
  <path class="st0" d="M1352.1,307.4h-138.6c.8,33.6,24.1,59,59.3,55.4s36.7-13.3,38-31.2l40.2,14.5c-13.7,36.5-51.3,57.9-90.2,55.8-129.7-7-121.1-222,19.3-205.5,30.4,3.6,54.5,26,65.2,53.7s6.8,21.1,6.8,22.2v35.1ZM1305.9,273.5c-.9-56.5-82.6-51-90,0h90Z"/>
  <path class="st0" d="M1554,396.9h-46.2v-134.3c0-1.2-5.3-10.9-6.6-12.7-20.7-27.1-68.7-5-68.7,22.4v124.6h-46.2v-198.5h46.2v19.4c30.2-29.2,88.6-32.6,111.4,6.5,2.5,4.3,10.2,22.5,10.2,26.2v146.4Z"/>
  <polygon class="st0" points="1923.7 125.9 1923.7 399.4 1878.7 399.4 1875.1 395.7 1875.1 129.5 1878.7 125.9 1923.7 125.9"/>
</svg>