<?xml version="1.0" encoding="UTF-8"?>
<svg id="Layer_1" xmlns="http://www.w3.org/2000/svg" version="1.1" viewBox="0 0 2030.6 546.3">
  <!-- Generator: Adobe Illustrator 29.0.1, SVG Export Plug-In . SVG Version: 2.1.0 Build 192)  -->
  <defs>
    <style>
      .st0 {
        fill: #d3d3d3;
      }
    </style>
  </defs>
  <path class="st0" d="M1004,30.9c-39.8,2.6-81.6,16.9-114.7,39.2-34.9,23.6-62.5,55.5-80.5,92.6-9.8,20.4-15.9,39.5-20.1,63.1-3.2,17.7-3.8,44.4-1.6,64.9,3,27.6,13.1,60.6,26.7,87.6l3.9,7.6-9.1,27.1c-5,14.9-14.1,42-20.2,60.3-6.2,18.4-11.2,33.9-11.2,34.6s1,1.6,2.1,2.1c1.9.7,2.1,1,1.8,3.3-.4,2.4-.4,2.5,1.3,2,3-1,69-22,96.9-31,14.6-4.6,27.1-8.5,27.9-8.5s3.8,1.3,7,2.9c27,13.6,55.8,21.7,86.4,24.5,12.1,1,36.7.5,48.6-1.2,70.4-9.7,130.2-48.6,167.1-108.3,12-19.5,23.5-46.6,29.6-70.2,5.8-22.6,8.6-50.7,7.1-72.4-4-57.6-26.3-108.6-65-148.8-37.5-38.9-85.3-62.9-139.8-70.2-8-1-35.5-1.9-44.3-1.3ZM1032.8,81.3c26.3,2.1,47.9,8,70.7,19.1,30.9,15.2,56.8,37.9,76,66.8,14.8,22.2,23.8,46.1,27.4,72.2,1.7,12.4,1.7,37.5,0,50.2-12,89.2-85.6,157.9-174.9,163.5-31.5,1.9-60.8-3.2-89.4-15.8-7.9-3.5-20.9-10.5-25-13.5-1.3-1-2.9-1.8-3.6-1.8s-16.4,4.8-34.8,10.7-33.6,10.7-33.7,10.5c-.1-.1,4.6-14.5,10.4-31.9,5.8-17.5,10.6-32.6,10.6-33.8s-1.3-3.9-3.2-6.6c-30.8-44.2-40.9-105.2-25.9-156.9,3.3-11.2,6-18.1,11.4-28.8,14.8-28.8,37.2-54,64.9-72.4,34.9-23.3,78.5-34.8,119.2-31.6Z"/>
  <path class="st0" d="M935.3,149.5c-1.7.5-4.1,1.7-5.5,2.5-3.8,2.4-14.7,14-18.1,19.3-10.8,16.9-13.3,39.4-6.8,61.4,4.9,16.6,11,29.3,22.1,46.4,14,21.5,23.1,33.2,37.6,48.2,21.8,22.5,40.2,35.1,68.4,46.8,20.8,8.7,36.1,13.6,44.8,14.5,6,.6,19-1.5,26.7-4.3,10.6-3.8,22.8-12.4,27.5-19.3,4.7-7.1,9.6-23.1,10.2-33.7l.4-7-2.3-2.7c-1.6-1.8-8.3-5.8-21.7-13-31.9-17.1-35.9-18.7-40.9-16.1-1.3.6-6,5.4-10.4,10.5-13.1,15.3-15.9,17.9-18.1,17.9s-21.2-9.4-29.7-15.1c-10-6.8-16.4-12.2-24.6-20.7-9.7-10.1-20.3-24.6-26.2-35.8l-1.3-2.7,5.3-5.8c7-7.4,9.9-11.9,12.7-19.8,2.9-8,2.7-10.4-1.5-21.4-3.8-9.8-6.8-17.9-12-32-4.3-11.6-7.4-16.3-11.9-17.7-4.2-1.3-21.2-1.6-24.6-.5Z"/>
</svg>