<?xml version="1.0" encoding="UTF-8"?>
<svg id="Camada_1" xmlns="http://www.w3.org/2000/svg" version="1.1" viewBox="0 0 841.9 187.6">
  <!-- Generator: Adobe Illustrator 29.0.1, SVG Export Plug-In . SVG Version: 2.1.0 Build 192)  -->
  <defs>
    <style>
      .st0 {
        fill: #4aa07d;
      }

      .st1 {
        fill: #cecece;
      }
    </style>
  </defs>
  <g>
    <path class="st1" d="M25.4,162.2V25.8h103.1v25.3H56.7v85.7h74.2v25.3H25.4ZM54.4,105.3v-24.6h65.7v24.6H54.4Z"/>
    <path class="st1" d="M221.4,164.5c-10.5,0-20.3-1.7-29.3-5.2-9-3.4-16.9-8.3-23.5-14.7-6.6-6.4-11.8-13.8-15.5-22.4-3.7-8.6-5.6-18-5.6-28.2s1.9-19.7,5.6-28.2,8.9-16,15.6-22.4c6.7-6.4,14.5-11.3,23.5-14.7,9-3.4,18.8-5.2,29.4-5.2s22.5,2,32.1,6.1,17.6,10.1,24.1,18l-20.3,18.7c-4.7-5.3-9.9-9.3-15.6-12s-11.9-4-18.7-4-12.2,1-17.5,3.1c-5.3,2.1-9.9,5.1-13.8,9-3.9,3.9-6.9,8.5-9.1,13.8-2.1,5.3-3.2,11.2-3.2,17.7s1.1,12.4,3.2,17.7c2.1,5.3,5.2,9.9,9.1,13.8s8.5,6.9,13.8,9c5.3,2.1,11.2,3.1,17.5,3.1s13-1.3,18.7-4c5.7-2.7,10.9-6.7,15.6-12.2l20.3,18.7c-6.5,7.9-14.5,14-24.1,18.1-9.6,4.2-20.3,6.2-32.2,6.2h0Z"/>
    <path class="st1" d="M297.1,162.2V25.8h31.6v136.4h-31.6ZM326.4,106.3v-26.7h66.6v26.7h-66.6ZM390.7,162.2V25.8h31.6v136.4h-31.6Z"/>
    <path class="st1" d="M520.8,164.5c-10.8,0-20.8-1.8-29.9-5.3s-17.1-8.4-23.8-14.8c-6.7-6.4-11.9-13.8-15.6-22.4-3.7-8.6-5.5-17.9-5.5-28.1s1.9-19.5,5.5-28.1c3.7-8.6,8.9-16,15.7-22.4,6.8-6.4,14.7-11.3,23.8-14.8,9.1-3.5,19-5.3,29.6-5.3s20.7,1.8,29.7,5.3c9,3.5,16.9,8.5,23.6,14.8,6.7,6.4,11.9,13.8,15.7,22.3s5.7,17.9,5.7,28.2-1.9,19.5-5.7,28.2c-3.8,8.6-9,16.1-15.7,22.4-6.7,6.3-14.5,11.2-23.6,14.7-9,3.5-18.9,5.3-29.5,5.3h0ZM520.6,137.6c6.1,0,11.7-1,16.9-3.1,5.1-2.1,9.6-5.1,13.5-9,3.9-3.9,6.9-8.5,9.1-13.8s3.2-11.2,3.2-17.7-1.1-12.4-3.2-17.7c-2.1-5.3-5.1-9.9-9-13.8-3.8-3.9-8.3-6.9-13.5-9-5.2-2.1-10.8-3.1-17-3.1s-11.7,1-16.9,3.1c-5.1,2.1-9.6,5.1-13.5,9-3.9,3.9-6.9,8.5-9.1,13.8-2.1,5.3-3.2,11.2-3.2,17.7s1.1,12.2,3.2,17.6c2.1,5.4,5.1,10,9,13.9,3.8,3.9,8.3,6.9,13.5,9,5.2,2.1,10.8,3.1,17,3.1h0Z"/>
  </g>
  <g>
    <path class="st0" d="M619,162.2V25.8h91.2v9h-81.2v127.4h-9.9ZM627.8,102v-9h73.8v9h-73.8Z"/>
    <path class="st0" d="M768.9,163.2c-10,0-19.3-1.7-28-5.1s-15.4-7.8-20.2-13.2l5.1-7.6c4.2,4.8,10,8.8,17.6,12s16.1,4.8,25.4,4.8,21.5-2.7,28-8.2c6.4-5.5,9.6-12.8,9.6-22s-3.2-16.4-9.6-21.9-16.5-8.3-30.1-8.3h-8.6v-7.2l43.5-55.5,1.4,3.9h-77.2v-9h85.5v7l-43.2,55.5-4.3-3.1h4.3c16.2,0,28.4,3.6,36.4,10.7,8,7.2,12.1,16.4,12.1,27.9s-1.8,14.3-5.4,20.3c-3.6,6-8.9,10.6-16,14-7.1,3.4-15.9,5.1-26.4,5.1h0Z"/>
  </g>
</svg>