<?xml version="1.0" encoding="UTF-8"?>
<svg id="Camada_2" data-name="Camada 2" xmlns="http://www.w3.org/2000/svg" viewBox="0 0 590.67 590.67">
  <defs>
    <style>
      .cls-1 {
        fill: #4aa07d;
      }

      .cls-2 {
        fill: #fff;
      }
    </style>
  </defs>
  <g id="Camada_1-2" data-name="Camada 1">
    <g>
      <circle class="cls-1" cx="295.33" cy="295.33" r="295.33"/>
      <path class="cls-2" d="M323.74,231.45v7.11h16.44c6.2,0,6.2,14.22,0,14.22h-37.78v19.56c8.68,1.22,14.12,8.56,17.48,16.04,18.01,1.16,38.13-1.66,55.88-.07,6.73.6,13.37,5.05,16.59,10.96.44.81,2.48,5.19,2.48,5.52v33.33h61.78c5.6,0,16.32,11.23,16.37,17.41-1.45,24.68,2.2,52.04.11,76.4-.7,8.18-8.56,19.97-17.36,19.97h-39.56v7.11h16.44c4.6,0,9.27,13.2-2.62,14.26-27.37,2.45-58.44-1.88-86.21-.09-9.15-1.43-5.81-14.17-.94-14.17h16.44v-7.11h-40.44c-.33,0-4.7-2.04-5.52-2.48-6.47-3.53-10.41-10.13-10.96-17.48-1.84-24.6,1.39-51.55.11-76.4.05-6.18,10.77-17.41,16.37-17.41h61.78v-29.78c0-2.63-4.73-6.06-7.54-5.8h-53.2c-8.49,23.03-40.7,23.03-49.19-.01h-53.2c-2.81-.24-7.54,3.19-7.54,5.81v29.78h61.78c5.6,0,16.32,11.23,16.37,17.41-1.45,24.68,2.2,52.04.11,76.4-.7,8.18-8.56,19.97-17.36,19.97h-39.56v7.11h16.44c4.6,0,9.27,13.2-2.62,14.26-27.37,2.45-58.44-1.88-86.21-.09-9.15-1.43-5.81-14.17-.94-14.17h16.44v-7.11h-40.44c-.33,0-4.7-2.04-5.52-2.48-6.47-3.53-10.41-10.13-10.96-17.48-1.84-24.6,1.39-51.55.11-76.4.05-6.18,10.77-17.41,16.37-17.41h61.78v-33.33c0-.33,2.04-4.7,2.48-5.52,3.23-5.91,9.86-10.36,16.59-10.96,17.75-1.59,37.87,1.23,55.88.07,3.37-7.47,8.8-14.82,17.48-16.04v-19.56h-37.78c-6.2,0-6.2-14.22,0-14.22h16.44v-7.11h-40.44c-5.6,0-16.32-11.23-16.37-17.41,1.53-24.9-2.31-52.75-.11-77.29.94-10.49,9.66-18.34,20-19.11,42.7-3.2,89.36,2.47,132.48.03,8.76.98,17.24,9.46,18.22,18.22-1.8,24.49,2.4,52.36-.01,76.44-.78,7.8-9.07,19.12-17.32,19.12h-39.56ZM364.38,133.92c-1.2-1.2-4.58-2.06-6.37-2.07-40.39,2.83-85.6-3.6-125.42,0-6,.54-7.91,2.52-8.45,8.45-1.54,16.96-1.54,51.57,0,68.53.54,6,2.52,7.91,8.45,8.45,40.39-2.83,85.6,3.6,125.42,0,6-.54,7.91-2.52,8.45-8.45,2-22.02-1.61-47.05-.02-69.4-.16-1.48-1.07-4.52-2.05-5.51ZM309.52,231.45h-28.44v7.11h28.44v-7.11ZM292.39,285.88c-10.03,1.8-10.35,16.63-.72,18.96,18.42,4.44,19.32-22.3.72-18.96ZM271.94,354.36c-1.2-1.2-4.58-2.06-6.37-2.07-40.39,2.83-85.6-3.6-125.42,0-6,.54-7.91,2.52-8.45,8.45-1.54,16.96-1.54,51.57,0,68.53.54,6,2.52,7.91,8.45,8.45,40.39-2.83,85.6,3.6,125.42,0,6-.54,7.91-2.52,8.45-8.45,2-22.02-1.61-47.05-.02-69.4-.16-1.48-1.07-4.52-2.05-5.51ZM456.82,354.36c-1.2-1.2-4.58-2.06-6.37-2.07-40.39,2.83-85.6-3.6-125.42,0-6,.54-7.91,2.52-8.45,8.45-1.54,16.96-1.54,51.57,0,68.53.54,6,2.52,7.91,8.45,8.45,40.39-2.83,85.6,3.6,125.42,0,6-.54,7.91-2.52,8.45-8.45,2-22.02-1.61-47.05-.02-69.4-.16-1.48-1.07-4.52-2.05-5.51ZM217.07,451.89h-28.44v7.11h28.44v-7.11ZM401.96,451.89h-28.44v7.11h28.44v-7.11Z"/>
    </g>
  </g>
</svg>