<?xml version="1.0" encoding="UTF-8"?>
<svg id="Camada_2" data-name="Camada 2" xmlns="http://www.w3.org/2000/svg" viewBox="0 0 590.67 590.67">
  <defs>
    <style>
      .cls-1 {
        fill: #4aa07d;
      }

      .cls-2 {
        fill: #fff;
      }
    </style>
  </defs>
  <g id="Camada_1-2" data-name="Camada 1">
    <g>
      <circle class="cls-1" cx="295.33" cy="295.33" r="295.33"/>
      <g>
        <path class="cls-2" d="M324.28,467.05h-18.77c-38.53-3.23-67.29-30.84-93.88-55.98-21.14-19.99-44.28-43.66-62.33-66.41-31.13-39.23-35.35-89.84-5.26-131.28,7.51-10.34,17.9-23.59,31.4-12.87,12.56,14.54,30.2,27.62,42.25,42.24,4.2,5.09,5.79,9.78,3.48,16.25l-29.27,47.17c-1.72,4.93,3.82,10.11,6.73,13.98,19.65,26.03,48.47,54.82,74.76,74.09,3.37,2.47,6.85,6.49,11.3,4.73l46.27-28.82c5.47-2.89,11.39-1.62,16.13,2.02,12.57,14.76,30.91,28.1,42.91,42.92,10.96,13.53-1.63,23.74-12.14,31.47-14.66,10.78-35.33,19.13-53.58,20.51ZM140.56,239.74c-9.26,25.33-8.97,52.34,2.56,76.89,8.15,17.37,26.83,36.9,40.01,51.19,21.01,22.76,47.35,48.77,71.77,67.7,27.5,21.3,63.27,28.22,95.88,14.1l-48.62-49.33c-9.73,4.89-16.36,13.64-27.95,7.21s-31.37-24.73-41.46-34.31c-13.74-13.03-40.62-40.63-49.39-56.55-6.23-11.32,1.73-18.34,7.39-27.62-.01-1.45-19.13-17.31-19.89-20.94-.96-4.64,3.35-7.52,7.76-5.7,3.2,1.31,16.13,17.36,17.93,16.93l14.57-22.99.52-4.15-44.42-44.78c-.68-.35-1.42-.57-2.19-.56-3.34.06-10.18,9.07-12.27,11.91-1.11,1.5-6.73,9.56-6.64,10.62l17.52,17.81c2.77,4.94-1.88,10.02-7.23,7.23-3.67-1.91-9.87-10.61-13.82-13.66-.67-.52-.85-1.3-2.01-1ZM382.4,429.29c1.63-1.93,2.21-4.9.21-6.83l-42.92-42.9-5.17.17-22.98,14.59,49.61,50.29c1.04.46,7.62-4.24,8.94-5.17,3.29-2.31,9.87-7.25,12.32-10.14Z"/>
        <path class="cls-2" d="M467.1,216.27v18.77c-5.92,51.48-47.13,89.83-98.88,92.56-8.85.47-22.94.8-31.57,0-6.83-.63-8.99-6-3.19-9.95,34.02.81,64.85.25,91.71-22.95,58.28-50.34,31.66-146.17-43.78-159.36-78.95-13.81-134.93,70.51-93.61,139.2,3.27,5.44,10.37,11.01,5.64,17.83-5.28,7.6-17.24,15.43-23.14,23.13-.52.68-1.29.85-1,2.02h44.59c3.34,0,5.38,9.22-2,10.07-14.95-1.5-33.76,1.98-48.23-.07-6.59-.93-10.06-8.24-5.76-13.69l26.05-26.24c-9.09-13.67-16.39-27.95-19.15-44.35-12.26-73.07,53.25-134.05,125.33-116.62,40.81,9.87,73.65,47.53,76.97,89.66Z"/>
        <path class="cls-2" d="M348.94,201.04c32.15-3.42,36.31,44.87,7.13,48.7-34.87,4.58-39.21-45.29-7.13-48.7ZM361.59,215.17c-12.56-12.49-33.46,6.32-20.58,20.24s34.52-6.38,20.58-20.24Z"/>
        <path class="cls-2" d="M417.48,233.03c-.45,5.79,2.61,18.62-7.02,16.75-2.87-.56-3.5-3.88-3.73-6.33-1.13-12.11.65-26.31.33-38.62,1.84-6,17.56-4.54,22.19-2.67,10.48,4.23,13.48,18.13,5.36,26.2-4.9,4.86-10.58,5.05-17.12,4.67ZM417.48,222.98c15.49,2.25,15.34-13.84,0-12.07v12.07Z"/>
        <path class="cls-2" d="M302.83,230.35l10.01-27.68c5.77-3.85,9.7-.46,8.45,6.26-1.08,5.78-9.95,32.72-12.59,37.69-2.82,5.32-8.84,4.12-11.37-1.06-2.95-6.06-11.85-31.02-12.98-37.31-1.29-7.17,5.62-10.24,9.23-4.53,3.99,6.31,5.74,19.46,9.25,26.62Z"/>
        <path class="cls-2" d="M390.51,200.97c3.27-.42,5.26,1.82,5.56,4.87,1.24,12.64-.97,27.36-.08,40.23-.84,5.4-9.34,5.72-10.05-1.94-1.14-12.31.88-26.38.07-38.88.3-2.38,2.17-3.98,4.5-4.28Z"/>
      </g>
    </g>
  </g>
</svg>