<?xml version="1.0" encoding="UTF-8"?>
<svg id="Camada_2" data-name="Camada 2" xmlns="http://www.w3.org/2000/svg" viewBox="0 0 590.67 590.67">
  <defs>
    <style>
      .cls-1 {
        fill: #4aa07d;
      }

      .cls-2 {
        fill: #fff;
      }
    </style>
  </defs>
  <g id="Camada_1-2" data-name="Camada 1">
    <circle class="cls-1" cx="295.33" cy="295.33" r="295.33"/>
    <g>
      <path class="cls-2" d="M218.63,371.18c-16.59-4.72-8.77-27.86,7.28-21.31,1.22-1.78,8.3-7.47,8.58-8.94.16-.83.11-4.01-.14-4.8-.26-.83-2.66-3.44-3.39-4.87-2.96-5.8-3.17-12.33-.79-18.39-.12-.46-2.49-1.09-3.17-1.45-4.52-2.44-7.7-6.79-8.61-11.88.41-10.64-.84-22.11-.1-32.65.56-7.92,6.62-14.39,14.55-15.03-.42-2.97-.55-5.6.24-8.51.32-1.17,1.24-2.59,1.4-3.56.19-1.21.17-7.45-.29-8.26l-8.28-8.26c-11.5,5.75-22.44-9.08-13.19-18.13,9.14-8.94,23.59,1.97,17.97,13.36,2.44,3.18,7.87,6.75,9.84,9.99,1.02,1.68.98,3.3.91,5.21,3.27-1.64,7.06-1.96,10.57-.99,3.79-15.55,23.58-20.07,33.71-7.43,2.13,2.66,7.21,14.1,1.48,15.01-4.75.75-3.89-4.35-4.86-7.33-1.35-4.13-5.61-7.74-9.99-8.19-9.53-.96-15.89,7.09-13.71,16.19,1.61-.25,2.74-1.16,4.46-1.32,8.63-.8,14.61,8.71,9.81,16.09-5.61,8.64-19.11,4.4-19.16-5.68,0-.95.66-2.64.45-3.48-.14-.56-1.31-2.06-1.67-2.97-.56-1.4-.73-2.72-1.16-4.13-7.1-2.62-14.02,3.86-11.74,11.07,1.03,3.25,2.67,3.1,4.95,4.97,1.62,1.34,3.46,3.68,4.31,5.61.45,1.03.71,3.07,1.13,3.75.13.21,2.71,1.48,3.46,2.24,7.7,7.77-2.58,20.51-11.8,14.12-5.95-4.12-4.96-13.02,1.45-16-3.14-10.17-17.28-8.5-18.22,2.33-.83,9.6.64,20.36.02,30.09.55,5.58,5.38,9.58,10.99,8.68.49-.08,2.62-.8,2.9-1.07.71-.67.02-1.52,0-2.33-.58-16.42,19.71-16.14,21.67-3.81,1.58,9.94-8.71,16.13-17.18,11.24-1.15,1.15-4.65,1.71-5.49,2.56-.52.53-1.47,2.67-1.73,3.47-4.94,15.32,13.65,26.59,24.8,15.3-5.21-7.62,2.9-17.42,11.39-13.63,8.78,3.91,6.28,16.91-3.58,17.73-.72.06-1.25-.53-2.1-.14-.48.22-2.79,2.65-3.68,3.28-1.1.78-2.11,1.13-3.19,1.76-.89.52-.11,1.46.31,2.18,5.73,10.02,22.09,6.07,23.09-6.54.54-6.85-.43-14.41-.01-21.33h-7.11c-.67,0-8.84-8.23-9.59-9.25-.29-.39-.67-.71-.75-1.23l.08-36.14,10.26-10.23h22.31v-24.29c0-.23.89-3.08,1.07-3.56,3.16-8.59,12.54-13.69,21.49-12.05,7.22,1.32,13.31,7.27,15.1,14.32,3.56-.67,7.3-.58,10.59,1.13-.06-1.91-.11-3.52.91-5.21,1.97-3.25,7.41-6.81,9.84-9.99-6.48-16.07,16.62-23.83,21.31-7.28v4.3c-2.14,7.3-9.45,11.07-16.53,7.76l-8.58,8.94c.23,2.45-.36,5.55.01,7.91.17,1.05,1.17,2.54,1.48,3.81.64,2.59.76,5.41-.18,7.94,8.34.6,14.28,7.09,14.89,15.36s.55,21.65,0,30.11c-.33,5.01-2.42,9.65-6.52,12.65-1.67,1.22-3.66,1.78-5.37,2.91,2.46,6.63,2.12,13.5-1.54,19.6-.48.81-2.63,3.28-2.72,3.56-.26.86-.19,4.81.25,5.57l8.28,8.26c7.09-3.32,14.4.47,16.53,7.76v4.3c-1.26,4.78-4.48,8-9.25,9.25h-3.97c-7.5-1.86-11.39-9.37-8.09-16.53-2.61-3.18-7.05-6.22-9.42-9.42-.95-1.29-1.42-2.47-1.33-4.12-3.5,1.37-7.46,2.48-11.22,1.66-2.23,6.34-8.13,11.12-14.76,12.19-7.94,1.28-16.14-2.58-20.02-9.66-1.62-2.96-4.68-12.16.63-12.72,4.02-.42,3.53,4.68,4.29,7.13,2.94,9.54,15.5,11.8,21.75,4.04.4-.5,1.72-2.08,1.34-2.66-.14-.22-3.75-2.29-4.46-2.83s-2.38-2.6-2.91-2.74c-.66-.17-1.26.31-1.87.25-13.44-1.21-10.88-20.08,1.59-18.45,6.47.85,10.02,8.97,6.23,14.35,13,12.75,32.46-3.41,23.06-18.78l-5.55-2.49c-6.08,3.21-13.71,1.66-16.44-5.02-4.82-11.8,10.67-20.89,18.51-11.24,2.56,3.15,3.21,7.07,1.82,10.9,7.63,3.64,13.95-.54,14.55-8.73.56-7.64.56-20.15,0-27.79-.28-3.76-1.34-6.88-4.74-8.81-5.31-3.01-12.02-.47-13.47,5.47,6.94,3.25,7.23,13.5.15,16.7-9.85,4.44-17.62-7.98-10.55-14.85.83-.8,3.2-1.8,3.4-2.05.23-.29.68-2.65,1.01-3.45.98-2.35,2.9-4.77,4.86-6.38,2.2-1.81,3.74-1.59,4.63-4.95,1.73-6.5-3.32-11.95-9.93-11.25-2.95.31-2.05,1.99-2.98,4.29-.37.91-1.61,2.65-1.76,3.23-.23.94.49,4.02.19,5.78-.55,3.24-3.83,6.68-6.93,7.61-13.16,3.97-19.24-14.9-6.96-19.52,3.61-1.36,5.87-.7,9.34.58,1.37-5.5-.7-11.71-5.72-14.61-8.05-4.64-17.95.6-18.75,9.8-.61,7.01.48,14.89.01,21.99h7.11c.75,0,10.06,9.49,10.34,10.82l-.08,35.46c-.23.62-.59,1.13-.99,1.65-1.27,1.65-6.12,6.49-7.77,7.77-.3.23-1.66,1.15-1.83,1.15h-21.98v23.63c0,2.44-2.7,7.64-4.31,9.58-9.59,11.59-27.23,8.12-33.04-5.3-3.68.43-7.51-.3-10.91-1.79.09,1.66-.38,2.83-1.33,4.12-2.37,3.21-6.82,6.24-9.42,9.42,3.3,7.17-.59,14.67-8.09,16.53h-3.97ZM220.22,208.64c-5.92.46-5.27,9.38.55,9.2s5.8-9.69-.55-9.2ZM366.97,208.64c-5.92.46-5.27,9.38.55,9.2s5.8-9.69-.55-9.2ZM266.78,252.74c3.47-3.39-1.53-8.54-5.02-5.52-3.68,3.17,1.54,8.92,5.02,5.52ZM326.27,247.35c-3.34-3.26-8.67,1.88-5.15,5.32s8.55-2,5.15-5.32ZM278.36,264.82l-6.17,6.38.16,31.22,6.28,5.95,30.89-.16,5.63-5.28.64-1.35-.15-30.88-6.28-5.95-30.99.06ZM248.62,275.56c2.32-1.88-.63-6.11-3.39-3.88-2.55,2.07.76,5.99,3.39,3.88ZM342.82,271.79c-2.17-2.16-5.84,1.03-3.7,3.53,2.06,2.4,6.19-1.05,3.7-3.53ZM248.96,296.89c-6.16,1.03-3.56,11,2.69,7.99,4.5-2.17,1.72-8.73-2.69-7.99ZM337.54,296.89c-6.14,1.02-3.47,10.96,2.69,7.99,4.33-2.09,2.1-8.79-2.69-7.99ZM266.65,324.67c-2.28,2.28,1.1,5.78,3.53,3.7,2.4-2.06-1.04-6.19-3.53-3.7ZM321.34,324.66c-2.21-2.4-6.14,1.45-3.54,3.71,2.34,2.03,5.67-1.4,3.54-3.71ZM219.88,355.39c-5.48.79-4.91,9.3.87,9.15,6.35-.16,5.6-10.09-.87-9.15ZM366.63,355.39c-5.48.79-4.91,9.3.87,9.15,6.35-.16,5.6-10.09-.87-9.15Z"/>
      <path class="cls-2" d="M284.18,252.42c-3.25-2.87,1.16-8.06,4.49-4.98,3.32,3.07-1.41,7.7-4.49,4.98Z"/>
      <path class="cls-2" d="M299.06,321.72c3.73-3.64,8.51,3.17,3.81,5.3-3.54,1.61-6.2-2.98-3.81-5.3Z"/>
      <path class="cls-2" d="M461.78,257.94c19.01,104.49-59.65,245.38-249.44,184.13l-86.02,21.36,22.67-86.05c-62.47-107.48,11.02-244.75,134-254.83,0,0,144.35-11.73,178.79,135.39ZM165.87,423.87l52.5-13.1c101.29,63.38,228.59-13.81,218.06-133.55-5.62-63.91-61.58-119.93-125.49-125.55-121.7-10.7-198.01,120.02-131.39,221.31l-13.68,50.9Z"/>
      <g>
        <path class="cls-2" d="M278.47,297.15v-22.02h14.72v1.45h-13.12v20.57h-1.6ZM279.88,287.43v-1.45h11.92v1.45h-11.92Z"/>
        <path class="cls-2" d="M302.66,297.31c-1.62,0-3.12-.27-4.51-.82-1.4-.55-2.48-1.26-3.26-2.14l.82-1.23c.67.78,1.62,1.42,2.85,1.93,1.23.51,2.6.77,4.11.77,1.97,0,3.48-.44,4.51-1.32s1.56-2.07,1.56-3.55-.52-2.65-1.56-3.54c-1.04-.89-2.66-1.34-4.86-1.34h-1.38v-1.16l7.02-8.97.22.63h-12.46v-1.45h13.81v1.13l-6.98,8.97-.69-.5h.69c2.62,0,4.58.58,5.88,1.73,1.3,1.15,1.95,2.65,1.95,4.5,0,1.22-.29,2.31-.87,3.27-.58.96-1.44,1.72-2.58,2.27-1.14.55-2.56.82-4.26.82Z"/>
      </g>
    </g>
  </g>
</svg>